<svg width="300" height="68" viewBox="0 0 300 68" fill="none" xmlns="http://www.w3.org/2000/svg">
<path d="M96.2185 64.8023C92.6875 64.8023 89.6689 63.9197 87.1628 62.1535C84.6558 60.3873 82.7356 57.9188 81.402 54.7478C80.0676 51.5769 79.4004 47.8776 79.4004 43.6491V42.8064C79.4004 38.1774 80.0676 34.1363 81.402 30.6847C82.7365 27.2332 84.663 24.5435 87.1834 22.6166C89.7038 20.6897 92.7018 19.7263 96.1792 19.7263C98.6861 19.7263 100.876 20.2014 102.748 21.1515C104.621 22.1016 106.232 23.4593 107.58 25.2255V8.76874L101.152 7.56466V1.34265H117.768V56.5735L123.832 57.7776V63.9587H108.954L108.145 58.7002C106.771 60.707 105.093 62.2254 103.112 63.2555C101.13 64.2855 98.8328 64.8005 96.2185 64.8005V64.8023ZM99.0886 56.815C101.029 56.815 102.7 56.3932 104.102 55.5506C105.503 54.7079 106.662 53.4834 107.578 51.8779V32.7315C106.689 31.1793 105.536 29.9548 104.121 29.0589C102.706 28.162 101.055 27.7145 99.1691 27.7145C96.9591 27.7145 95.1461 28.3503 93.7312 29.6209C92.3163 30.8916 91.2716 32.6578 90.5982 34.9195C89.9247 37.1802 89.5875 39.8095 89.5875 42.8064V43.6491C89.5875 47.6627 90.3352 50.8603 91.8315 53.2418C93.3269 55.6234 95.7463 56.8141 99.0886 56.8141V56.815Z" fill="#E2B524"/>
<path d="M159.571 63.9589V57.7777L165.676 56.5736V8.76887L159.208 7.56478V1.34277H175.824V56.5736L181.929 57.7777V63.9589H159.572H159.571Z" fill="#E2B524"/>
<path d="M188.244 63.9588V57.7776L194.349 56.5735V27.7545H187.679V20.5299H194.349V15.4321C194.349 10.669 195.677 6.98928 198.331 4.39375C200.986 1.79821 204.698 0.5 209.469 0.5C210.574 0.5 211.76 0.587021 213.027 0.761063C214.293 0.935105 215.452 1.15532 216.503 1.42349L215.493 9.00942C214.927 8.87533 214.226 8.76167 213.39 8.66844C212.555 8.5752 211.733 8.52814 210.924 8.52814C208.768 8.52814 207.158 9.11686 206.093 10.2943C205.028 11.4718 204.495 13.1847 204.495 15.4321V20.5299H214.279V27.7545H204.495V56.5735L212.136 57.7776V63.9588H188.242H188.244Z" fill="#E2B524"/>
<path d="M238.508 64.8023C234.304 64.8023 230.692 63.8655 227.673 61.9928C224.655 60.1201 222.337 57.5174 220.72 54.1858C219.102 50.8541 218.294 47.0207 218.294 42.6857V41.843C218.294 37.5346 219.102 33.7216 220.72 30.4033C222.337 27.0849 224.655 24.4761 227.673 22.5758C230.692 20.6756 234.277 19.7263 238.428 19.7263C242.578 19.7263 246.244 20.6693 249.262 22.5563C252.281 24.4432 254.599 27.045 256.216 30.3633C257.833 33.6817 258.642 37.5079 258.642 41.843V42.6857C258.642 47.0207 257.833 50.8541 256.216 54.1858C254.599 57.5174 252.288 60.1192 249.283 61.9928C246.278 63.8655 242.686 64.8023 238.509 64.8023H238.508ZM238.508 57.0157C240.772 57.0157 242.638 56.4066 244.108 55.1892C245.576 53.9718 246.675 52.2855 247.403 50.1313C248.131 47.9771 248.494 45.4952 248.494 42.6857V41.843C248.494 39.0601 248.13 36.5986 247.403 34.4577C246.675 32.3168 245.57 30.6315 244.087 29.3999C242.605 28.1691 240.718 27.5538 238.428 27.5538C236.137 27.5538 234.33 28.1691 232.848 29.3999C231.366 30.6306 230.268 32.3168 229.553 34.4577C228.839 36.5986 228.482 39.0601 228.482 41.843V42.6857C228.482 45.4952 228.839 47.9771 229.553 50.1313C230.268 52.2855 231.373 53.9709 232.869 55.1892C234.364 56.4066 236.244 57.0157 238.509 57.0157H238.508Z" fill="#E2B524"/>
<path d="M282.616 64.8024C279.489 64.8024 276.571 64.5014 273.863 63.8993C271.154 63.2973 268.439 62.4075 265.717 61.2301L265.595 49.7504H272.913L274.45 56.0124C275.609 56.5212 276.801 56.9154 278.027 57.196C279.254 57.4766 280.622 57.6178 282.131 57.6178C285.042 57.6178 287.097 57.109 288.296 56.0923C289.495 55.0756 290.095 53.8182 290.095 52.3193C290.095 50.8204 289.469 49.6367 288.215 48.6067C286.962 47.5767 284.57 46.6869 281.04 45.9375C275.811 44.8133 271.964 43.175 269.498 41.0208C267.032 38.8666 265.798 36.0632 265.798 32.6117C265.798 30.2302 266.439 28.0759 267.719 26.1491C268.999 24.2222 270.886 22.6771 273.378 21.513C275.871 20.3488 278.937 19.7672 282.576 19.7672C285.892 19.7672 288.836 20.1082 291.41 20.791C293.984 21.473 296.174 22.377 297.98 23.5002L298.222 34.5386H290.985L289.732 28.7988C288.897 28.21 287.927 27.7554 286.821 27.4339C285.716 27.1125 284.449 26.9527 283.021 26.9527C280.784 26.9527 279.018 27.441 277.724 28.4178C276.431 29.3946 275.783 30.6191 275.783 32.0905C275.783 32.9465 275.993 33.7225 276.41 34.4187C276.828 35.1149 277.637 35.7498 278.836 36.3252C280.035 36.9006 281.794 37.4556 284.112 37.991C289.799 39.3025 293.869 41.0146 296.321 43.1288C298.774 45.2431 300 48.0393 300 51.5175C300 55.3979 298.572 58.5822 295.715 61.0702C292.858 63.5592 288.492 64.8033 282.616 64.8033V64.8024Z" fill="#E2B524"/>
<path d="M152.203 59.9629L146.499 65.6033L122.419 41.6725L145.303 18.9529L150.984 24.6155L137.989 37.4946H149.351V45.4863H137.622L152.203 59.9629Z" fill="#E2B524"/>
<path d="M31.2888 33.053L10.9629 13.1198L15.374 8.7945L31.2888 24.3997L48.2992 7.72095L52.7104 12.0462L31.2888 33.053Z" fill="#E2B524"/>
<path d="M34.2278 9.88403H27.9885V28.7268H34.2278V9.88403Z" fill="#E2B524"/>
<path d="M57.9075 58.0786L36.4851 37.0746L56.8128 17.1423L61.2239 21.4676L45.3074 37.0746L62.3187 53.7533L57.9075 58.0786Z" fill="#E2B524"/>
<path d="M60.1131 33.8362H40.8962V39.9534H60.1131V33.8362Z" fill="#E2B524"/>
<path d="M34.333 46.4941H28.0938V65.3369H34.333V46.4941Z" fill="#E2B524"/>
<path d="M14.0195 67.4999L9.6084 63.1746L31.0299 42.1688L51.3576 62.1011L46.9465 66.4264L31.0299 50.8194L14.0195 67.4999Z" fill="#E2B524"/>
<path d="M5.50587 58.0786L1.09473 53.7533L17.0113 38.1464L0 21.4676L4.41113 17.1423L25.8336 38.1464L5.50587 58.0786Z" fill="#E2B524"/>
<path d="M21.4229 35.2668H2.20605V41.3841H21.4229V35.2668Z" fill="#E2B524"/>
</svg>
